<?xml version="1.0" standalone="no"?>
<!DOCTYPE svg PUBLIC "-//W3C//DTD SVG 20010904//EN"
 "http://www.w3.org/TR/2001/REC-SVG-20010904/DTD/svg10.dtd">
<svg version="1.0" xmlns="http://www.w3.org/2000/svg"
 width="611.000000pt" height="449.000000pt" viewBox="0 0 611.000000 449.000000"
 preserveAspectRatio="xMidYMid meet">

<g transform="translate(0.000000,449.000000) scale(0.100000,-0.100000)"
fill="#000000" stroke="none">
<path d="M0 2245 l0 -2245 3055 0 3055 0 0 2245 0 2245 -3055 0 -3055 0 0
-2245z m3305 2195 c384 -44 733 -204 1034 -474 246 -221 447 -546 535 -863 54
-198 61 -254 61 -498 0 -238 -6 -282 -55 -470 -76 -286 -235 -567 -443 -782
l-90 -93 -173 0 c-96 0 -174 4 -174 8 0 5 30 30 68 57 103 75 289 268 360 373
299 439 364 1005 171 1486 -223 558 -719 948 -1306 1026 -134 18 -390 8 -523
-20 -330 -70 -652 -254 -863 -494 -124 -139 -181 -224 -258 -377 -254 -507
-215 -1122 100 -1590 106 -157 265 -326 398 -421 24 -17 43 -35 43 -40 0 -4
-76 -8 -168 -8 l-168 0 -73 72 c-277 277 -448 614 -513 1013 -7 48 -12 161
-12 285 1 180 4 220 27 330 37 179 81 305 162 465 93 184 193 322 340 471 114
115 286 253 378 304 319 176 579 247 912 249 77 0 181 -4 230 -9z m577 -692
c3 -47 17 -91 52 -172 42 -95 48 -119 48 -175 0 -54 -6 -76 -39 -140 -41 -82
-63 -100 -63 -54 0 16 -11 87 -25 157 -14 70 -25 131 -26 134 0 4 -4 -2 -9
-13 -11 -25 -11 -153 -1 -260 13 -138 1 -145 -71 -39 -48 71 -78 157 -78 224
0 59 28 149 72 231 39 74 111 169 128 169 4 0 10 -28 12 -62z m-662 -313 c154
-49 266 -119 366 -229 121 -132 175 -259 182 -427 6 -154 -26 -254 -111 -346
-51 -56 -97 -85 -160 -103 -124 -34 -277 37 -309 142 -13 46 -7 55 27 40 41
-19 113 -14 155 9 107 60 131 222 56 375 -171 345 -651 334 -820 -18 -43 -90
-70 -227 -61 -313 39 -371 329 -650 800 -769 205 -52 283 -60 552 -61 186 0
253 -3 253 -12 0 -6 -28 -37 -62 -68 l-63 -57 -155 5 c-382 14 -789 139 -1045
322 -257 183 -433 470 -436 709 -1 68 -1 70 -14 41 -19 -41 -19 -188 0 -281
37 -176 125 -326 289 -490 268 -267 712 -476 1123 -528 54 -6 98 -17 100 -23
9 -26 -195 -119 -354 -162 l-71 -19 -95 42 c-395 178 -770 506 -957 836 -88
157 -139 315 -155 485 -11 122 10 265 71 475 20 70 -52 -57 -80 -140 -113
-340 -81 -686 95 -1020 131 -248 315 -471 542 -654 26 -22 44 -43 40 -47 -10
-10 -185 14 -285 40 -167 43 -361 141 -466 236 -81 73 -176 275 -232 495 -67
262 -48 585 47 825 141 355 432 623 758 698 39 9 79 18 90 21 11 3 83 3 160 1
118 -3 154 -8 225 -30z m1180 -96 c0 -155 -104 -360 -217 -426 -45 -26 -56
-28 -158 -29 -66 0 -119 -5 -132 -12 -28 -15 -33 -15 -33 1 0 22 51 64 110 91
30 14 60 26 66 26 6 0 18 8 25 17 13 15 12 16 -8 11 -45 -12 -32 12 33 59 117
85 166 125 160 130 -18 19 -250 -104 -305 -161 -19 -20 -39 -36 -43 -36 -33 0
32 128 94 186 56 52 92 69 201 95 85 21 116 35 162 73 17 14 33 25 38 26 4 0
7 -23 7 -51z m-1119 -427 c50 -22 78 -45 104 -85 25 -39 13 -43 -42 -16 -68
32 -175 38 -235 11 -62 -27 -115 -76 -146 -136 -24 -46 -27 -61 -27 -156 1
-96 3 -111 31 -170 101 -213 333 -347 660 -380 219 -22 449 16 681 112 29 12
55 19 58 16 8 -8 -35 -121 -54 -140 -21 -21 -157 -63 -267 -82 -437 -75 -865
32 -1084 271 -69 76 -132 194 -150 280 -36 172 27 345 158 435 98 68 218 83
313 40z m-2706 -2043 c57 -21 125 -72 125 -92 0 -15 -71 -87 -85 -87 -7 0 -20
9 -30 20 -9 10 -37 27 -61 36 -141 54 -287 -89 -253 -248 24 -112 127 -173
248 -147 61 13 81 30 81 69 0 33 -14 40 -81 40 -44 0 -49 2 -55 26 -4 14 -2
40 3 57 l9 32 124 0 125 0 0 -130 0 -130 -56 -37 c-187 -125 -419 -67 -515
128 -25 51 -29 70 -29 144 1 72 5 93 28 140 82 167 257 241 422 179z m2172
-81 c55 -57 137 -142 183 -190 46 -49 87 -88 91 -88 5 0 10 82 11 183 l3 182
65 0 65 0 3 -326 c2 -298 1 -327 -14 -333 -13 -5 -67 43 -209 184 -105 105
-194 187 -198 184 -4 -4 -7 -88 -7 -186 l0 -179 -67 3 -68 3 -2 317 c-2 273 0
320 13 333 9 8 19 15 23 15 4 0 53 -46 108 -102z m-1521 65 c82 -44 121 -121
111 -219 -6 -58 -41 -121 -81 -147 -14 -10 -26 -23 -26 -30 0 -7 34 -59 75
-115 41 -56 75 -107 75 -112 0 -6 -32 -10 -75 -10 -74 0 -74 0 -104 38 -17 20
-52 68 -78 107 -42 60 -53 70 -85 76 -21 3 -42 1 -48 -5 -5 -5 -10 -55 -10
-113 l0 -103 -65 0 -65 0 0 331 0 331 168 -4 c149 -3 171 -6 208 -25z m694
-33 l0 -60 -149 0 c-110 0 -150 -3 -153 -12 -3 -7 -2 -40 1 -72 l6 -59 108 0
c151 1 149 2 145 -66 l-3 -56 -127 -3 c-104 -2 -128 -5 -129 -17 0 -8 -1 -39
-1 -67 l-1 -53 154 -5 154 -5 0 -60 0 -60 -225 0 -225 0 -3 315 c-1 173 0 320
3 327 3 10 57 13 225 13 l220 0 0 -60z m570 0 l0 -59 -152 -3 -153 -3 0 -70 0
-70 120 -1 c67 0 126 -4 133 -8 13 -8 16 -84 4 -103 -5 -8 -48 -13 -132 -15
l-125 -3 -3 -67 -3 -68 148 0 c81 0 154 -4 161 -9 9 -5 12 -25 10 -62 l-3 -54
-225 0 -225 0 -3 315 c-1 173 0 320 3 327 3 10 57 13 225 13 l220 0 0 -60z
m958 -138 c35 -107 68 -190 73 -185 4 4 38 87 74 183 37 96 72 181 77 188 6 6
21 12 33 12 12 0 27 -6 32 -12 8 -11 108 -280 128 -345 3 -13 9 -23 13 -23 4
0 33 80 66 178 32 97 63 183 69 190 12 15 153 13 150 -3 -1 -5 -25 -71 -53
-145 -28 -74 -72 -193 -97 -265 -25 -72 -54 -154 -65 -183 l-20 -53 -41 3 -41
3 -67 170 c-37 93 -71 171 -76 172 -4 1 -32 -57 -62 -130 -97 -240 -84 -219
-132 -215 l-42 3 -99 270 c-54 149 -107 292 -118 319 -11 26 -17 52 -14 58 3
5 38 8 77 6 l70 -3 65 -193z m1069 168 c92 -175 300 -617 294 -623 -4 -4 -37
-7 -72 -5 l-64 3 -30 60 -30 60 -139 0 -138 0 -32 -60 -31 -60 -64 -3 c-35 -2
-68 1 -72 5 -5 5 18 64 51 132 33 67 60 124 60 126 0 2 36 78 80 170 44 92 80
169 80 171 0 3 7 16 16 30 23 34 72 30 91 -6z m487 -182 c50 -115 94 -208 98
-208 8 0 19 23 115 245 36 83 70 156 76 163 7 9 31 12 76 10 77 -3 76 -3 31
-101 -15 -34 -67 -150 -115 -257 -142 -319 -130 -297 -164 -305 -59 -13 -61
-10 -198 295 -142 315 -161 359 -155 365 3 3 37 4 76 3 l69 -3 91 -207z m951
152 l0 -55 -155 -5 -155 -5 0 -70 0 -70 125 -3 c134 -3 140 -5 140 -59 0 -63
0 -63 -141 -63 l-129 0 0 -70 0 -69 158 -3 157 -3 3 -63 3 -62 -228 2 -228 3
-3 315 c-1 173 0 321 3 328 3 10 54 12 227 10 l223 -3 0 -55z"/>
<path d="M990 665 l0 -95 84 0 c79 0 86 2 105 26 23 29 28 83 10 116 -16 29
-70 48 -139 48 l-60 0 0 -95z"/>
<path d="M4432 575 c-46 -107 -47 -105 49 -105 73 0 80 2 74 17 -28 75 -72
163 -80 163 -6 0 -25 -34 -43 -75z"/>
</g>
</svg>
